<svg width="1024" height="1024" viewBox="0 0 1024 1024" fill="none" xmlns="http://www.w3.org/2000/svg">
<rect width="1024" height="1024" fill="#1C2230"/>
<path d="M235.822 629.274L608.066 132.874C617.298 120.564 636.763 129.829 633.031 144.759L510.204 636.14C509.387 639.407 509.766 642.857 511.271 645.869L626.219 875.799C632.687 888.736 617.815 901.866 605.782 893.843L239.281 649.473C232.545 644.981 230.964 635.752 235.822 629.274Z" fill="#B5C3D1"/>
<path d="M791 641.203C791 680.153 759.429 711.728 720.485 711.728C681.54 711.728 649.969 680.153 649.969 641.203C649.969 602.252 681.54 570.677 720.485 570.677C759.429 570.677 791 602.252 791 641.203Z" fill="#B5C3D1"/>
</svg>
